PathFileType	4	(X/Y/Z)	C:/Users/opensim2020/Desktop/walking_exp_matlab/subject01_walking17_run.trc	
DataRate	CameraRate	NumFrames	NumMarkers	Units	OrigDataRate	OrigDataStartFrame	OrigNumFrames	
100.00	100.00	6	61	mm	100.00	314	87	
Frame#	Time	LTHI			LKNE			RELB			STRN			RWRA			LSHO			RFRM			RUPA			RSHO			RASI			RBHD			RFIN			LFHD			RFHD			CLAV			LHEE			RWRB			LASI			LBHD			LWRA			LTIB			RTHI			LWRB			LTOE			RKNE			C7			LFRM			LFIN			LUPA			LELB			RTIB			RTOE			RBAK			RANK			T10			LPSI			LANK			RHEE			RPSI			*39			*40			*41			*42			*43			*44			*45			*46			*47			*48			*49			*50			*51			*52			*53			*54			*55			*56			*57			*58			*59			*60			
		X1	Y1	Z1	X2	Y2	Z2	X3	Y3	Z3	X4	Y4	Z4	X5	Y5	Z5	X6	Y6	Z6	X7	Y7	Z7	X8	Y8	Z8	X9	Y9	Z9	X10	Y10	Z10	X11	Y11	Z11	X12	Y12	Z12	X13	Y13	Z13	X14	Y14	Z14	X15	Y15	Z15	X16	Y16	Z16	X17	Y17	Z17	X18	Y18	Z18	X19	Y19	Z19	X20	Y20	Z20	X21	Y21	Z21	X22	Y22	Z22	X23	Y23	Z23	X24	Y24	Z24	X25	Y25	Z25	X26	Y26	Z26	X27	Y27	Z27	X28	Y28	Z28	X29	Y29	Z29	X30	Y30	Z30	X31	Y31	Z31	X32	Y32	Z32	X33	Y33	Z33	X34	Y34	Z34	X35	Y35	Z35	X36	Y36	Z36	X37	Y37	Z37	X38	Y38	Z38	X39	Y39	Z39	X40	Y40	Z40	X41	Y41	Z41	X42	Y42	Z42	X43	Y43	Z43	X44	Y44	Z44	X45	Y45	Z45	X46	Y46	Z46	X47	Y47	Z47	X48	Y48	Z48	X49	Y49	Z49	X50	Y50	Z50	X51	Y51	Z51	X52	Y52	Z52	X53	Y53	Z53	X54	Y54	Z54	X55	Y55	Z55	X56	Y56	Z56	X57	Y57	Z57	X58	Y58	Z58	X59	Y59	Z59	X60	Y60	Z60	X61	Y61	Z61	

44	0.430	-549.06903	-194.25847	577.09692	-529.22418	-256.06586	454.82837	-105.17909	-295.71579	1245.03113	-384.85837	53.69743	1165.89746	-101.00574	-208.60783	1004.38690	-566.10822	21.94606	1344.62683	-70.60416	-285.06775	1120.01990	-170.65627	-211.20744	1319.88318	-270.38962	-45.10241	1373.64771	-307.00192	-55.22935	925.96686	-360.10696	-91.64276	1581.50220	-53.58774	-189.44426	938.10712	-489.78220	-0.45315	1637.75647	-378.85062	9.49376	1653.81201	-399.62302	37.05822	1326.44202	-432.42038	-601.82605	216.89972	-59.56538	-248.62265	999.44684	-514.55347	-59.81094	903.62250	-478.32675	-100.60617	1568.17285	-480.74338	192.70198	1153.38342	-531.31409	-408.74472	342.27826	-257.26300	93.91216	708.70972	-484.69971	229.23032	1107.42932	-445.92883	-546.39569	38.16325	-286.27103	208.69344	599.73553	-441.94373	-99.76541	1402.01379	-575.98425	162.67525	1063.57874	-446.60077	258.99179	1172.93909	-649.63098	51.91459	1173.38623	-659.08685	79.42593	1025.00940	-260.27722	164.57974	424.95081	-295.47565	276.69128	152.24265	-367.65335	-189.31432	1238.13330	-289.48911	143.07782	209.84428	-432.87067	-186.91212	1128.99927	-457.17566	-236.89505	933.73621	-482.11194	-566.01422	186.28708	-336.07593	90.34156	168.82359	-315.50555	-231.27045	936.54327	-3101.95630	1973.12610	1023.37671	-3140.79126	2012.54761	1022.13025				-402.94690	-10.93240	1681.08667																																																						 
45	0.440	-550.46881	-150.05846	583.03760	-530.12292	-213.98973	462.11041	-107.81491	-253.39355	1249.24292	-382.16650	99.98840	1171.32227	-101.62981	-163.65218	1008.44531	-562.03113	68.76348	1349.62415	-72.15984	-241.98647	1123.80859	-171.41762	-167.30515	1324.73779	-268.58215	-0.91092	1376.84326	-309.18796	-5.80985	929.19690	-357.77704	-46.13579	1586.73389	-53.97963	-144.20055	941.89026	-487.95004	45.38804	1641.29492	-377.03220	55.69602	1657.55005	-396.74460	82.06510	1331.61438	-440.77325	-565.48999	235.56209	-60.71911	-204.08321	1003.33527	-514.70728	-9.75812	907.45184	-475.92499	-55.59189	1573.38086	-477.82449	229.26796	1163.82581	-533.76251	-367.37247	350.84845	-259.13647	137.40651	704.86395	-480.32367	267.62622	1119.20300	-446.67865	-525.54187	50.35704	-286.77496	254.00491	595.33392	-440.22202	-54.56405	1405.32520	-573.72821	205.28687	1072.92261	-440.36465	293.73898	1186.33252	-647.01135	99.05589	1179.55908	-658.99164	125.21963	1031.64282	-262.00522	226.70198	417.38141	-308.15668	363.01633	151.34019	-368.76611	-143.35892	1241.54700	-294.72647	225.62231	201.89511	-435.36627	-138.81761	1131.47449	-460.81656	-186.52911	938.12750	-487.45444	-531.68958	200.95259	-341.41083	175.37997	159.96547	-318.88486	-182.09549	942.19434	-3102.05396	1972.98438	1024.00012	-3140.57861	2012.55347	1022.13031				-401.20642	36.10418	1686.15723																																																						 
46	0.450	-551.32605	-100.88504	586.77112	-530.18793	-165.72356	465.38101	-109.70574	-209.64337	1250.18555	-379.98822	146.25342	1176.05432	-102.48632	-116.88985	1009.85028	-558.48370	115.20445	1353.80933	-73.48821	-196.97148	1124.28577	-171.32439	-122.83151	1327.34326	-266.85565	43.90883	1378.87573	-310.79276	43.33254	931.17596	-355.27423	-0.66921	1590.53491	-54.87054	-97.28109	943.10559	-485.84750	90.94977	1644.48230	-374.79141	101.60044	1660.73511	-394.19528	127.31486	1335.96240	-446.50867	-526.22125	254.20311	-61.92778	-157.71262	1003.86127	-514.00500	39.62147	910.56281	-473.49985	-10.58069	1577.36145	-475.47067	265.66910	1170.36646	-536.23029	-322.11502	357.22809	-260.75009	182.10687	698.58643	-476.91940	305.26239	1126.72119	-446.07584	-495.85150	63.25243	-286.97617	296.65286	587.14661	-438.36368	-9.30702	1407.96570	-571.86346	245.25902	1079.38708	-435.89053	327.72418	1194.10901	-646.08472	144.43605	1185.64160	-659.70355	169.15189	1036.80444	-263.70187	285.40912	408.25064	-319.80264	441.75980	149.49754	-369.67365	-97.38123	1244.27905	-300.32791	302.37805	194.63060	-437.64218	-91.46539	1133.81885	-464.28546	-136.24290	942.95728	-491.13058	-493.84113	217.27512	-347.15829	253.55669	152.79712	-321.77835	-132.77229	947.41321	-3101.94580	1973.11938	1023.64679	-3140.79858	2012.48169	1022.17310				-399.24652	82.74362	1690.11731																																																						 
47	0.460	-551.33582	-47.81533	587.04633	-529.82440	-112.81985	465.10321	-110.80775	-164.33035	1247.83972	-378.76208	192.63307	1179.77917	-103.57195	-68.15659	1008.52478	-555.75702	161.08121	1357.18481	-74.76787	-150.19713	1121.76782	-170.41936	-77.79620	1327.48962	-265.34845	89.16933	1380.00574	-312.29453	91.68454	932.11707	-352.73544	44.72987	1593.44153	-55.87970	-48.21335	941.82385	-483.45410	136.11339	1647.47839	-372.40405	147.18120	1663.43738	-392.08496	172.92702	1339.25061	-450.82443	-486.08801	272.40897	-63.30565	-109.65721	1001.96777	-513.72534	88.25142	912.34155	-470.90872	34.54121	1580.42700	-473.65765	302.60397	1172.87573	-539.13892	-273.64166	363.12213	-261.58093	227.39668	690.27832	-474.47556	342.53265	1129.35681	-447.21951	-461.89175	81.20449	-287.09543	337.90781	575.94879	-436.50275	35.94262	1410.25549	-571.70740	284.84503	1083.02905	-432.13345	363.67166	1196.13782	-646.41089	188.47742	1190.78503	-661.79510	210.92847	1040.54285	-266.42740	340.67953	397.50677	-329.85559	511.89023	146.03238	-370.20248	-51.53785	1246.21045	-306.26877	371.06549	187.47322	-439.63474	-45.20800	1136.56433	-467.28925	-86.22454	948.15790	-494.01889	-453.42380	233.65726	-353.51282	323.53391	145.49104	-324.10739	-83.41531	951.58746	-3102.05054	1973.16187	1023.76001	-3140.77271	2012.45605	1022.04083				-397.22919	129.01228	1693.34216																																																						 
48	0.470	-551.16046	7.54011	585.33331	-530.18896	-56.60979	462.72852	-111.44990	-117.51586	1242.69946	-378.43912	239.08586	1182.46252	-104.72181	-17.69314	1004.99170	-554.08105	206.53497	1359.89685	-75.94884	-101.62613	1116.65588	-168.83942	-31.73345	1324.87183	-263.96906	134.98589	1380.44153	-313.54507	139.64064	932.61670	-350.08221	90.38312	1595.57129	-57.32085	2.89971	938.12970	-480.82248	181.19737	1649.96680	-369.82031	192.86884	1665.57581	-390.77313	218.48894	1341.71716	-452.96072	-441.78552	291.72614	-64.68151	-59.17730	997.54236	-513.42334	136.61658	914.06268	-468.25443	79.58292	1582.88916	-472.32678	340.49631	1171.04480	-542.09991	-222.00371	368.16504	-261.36935	272.31866	680.14771	-473.24442	379.88821	1126.71765	-450.64713	-425.64658	98.91094	-287.77893	378.35577	563.33307	-434.68188	81.44926	1412.33276	-572.47931	323.25613	1083.37048	-429.38913	401.70740	1192.38086	-647.92725	230.97409	1194.47180	-664.67731	250.49382	1043.50476	-269.28326	390.33188	386.95697	-337.34073	572.79462	139.68904	-370.41153	-5.78159	1247.46667	-311.59000	431.02985	179.49037	-440.49359	1.54072	1139.12012	-469.57587	-36.64853	953.17944	-496.41470	-410.57813	251.62357	-359.30261	385.09570	138.78989	-326.06412	-34.02746	954.33429	-3101.88550	1973.08325	1023.43060	-3140.73633	2012.47217	1022.03217				-395.06277	174.77782	1695.72363																																																						 
49	0.480	-551.22888	64.67149	583.17535	-531.38593	2.88930	459.26318	-111.65932	-69.31165	1235.06348	-378.83386	285.37735	1184.44324	-106.55292	34.46687	999.16846	-553.28815	251.51949	1361.70984	-76.98820	-51.30795	1109.16223	-166.77092	15.64137	1319.38318	-262.71326	180.80928	1380.12329	-314.80811	187.63695	932.68433	-347.29514	136.12347	1597.05103	-59.20438	56.57287	932.54175	-478.29224	226.37384	1651.67542	-367.30902	238.67439	1666.86694	-390.04520	263.96292	1343.34998	-452.00269	-391.41592	311.80209	-66.30779	-6.52916	990.82086	-513.25977	184.73584	915.75256	-465.44696	124.71323	1584.71497	-471.64633	379.72278	1164.85059	-544.33105	-167.34305	373.55945	-260.06976	316.11359	668.62994	-473.65018	417.34946	1119.02356	-456.45660	-387.36044	117.90434	-288.99329	418.94449	550.11151	-432.74380	127.08285	1414.08850	-574.49207	360.40195	1080.57214	-427.41440	440.83200	1182.25977	-650.20862	272.04874	1196.85352	-668.54608	287.48520	1045.87781	-271.88699	433.80035	376.33078	-343.14984	623.60724	129.41594	-369.94229	40.05444	1247.94519	-315.83920	481.58276	170.42783	-440.54849	47.61742	1141.66467	-470.86758	12.61102	957.33679	-497.81168	-364.11438	271.05441	-364.97852	436.45212	131.41592	-327.59546	15.11708	955.35327	-3101.84229	1973.20007	1023.52307	-3140.76172	2012.42847	1022.20428				-392.48828	220.19696	1697.46362																																																						 
